HIERARCHY
ROOT Hips
{
    OFFSET 0.000000 0.000000 0.000000
    CHANNELS 6 Xposition Yposition Zposition Zrotation Xrotation Yrotation
    JOINT Spine
    {
        OFFSET -0.000000 7.284621 0.000000
        CHANNELS 3 Zrotation Xrotation Yrotation
        JOINT Spine1
        {
            OFFSET -0.000000 19.968920 0.000000
            CHANNELS 3 Zrotation Xrotation Yrotation
            JOINT Neck
            {
                OFFSET -0.000000 21.745657 0.000000
                CHANNELS 3 Zrotation Xrotation Yrotation
                JOINT Head
                {
                    OFFSET -0.000000 13.769711 1.776737
                    CHANNELS 3 Zrotation Xrotation Yrotation
                    End Site
                    {
                        OFFSET -0.000000 17.767368 0.000000
                    }
                }
            }
            JOINT LeftShoulder
            {
                OFFSET 3.594505 17.711157 -0.013107
                CHANNELS 3 Zrotation Xrotation Yrotation
                JOINT LeftArm
                {
                    OFFSET 12.210003 0.000000 0.000000
                    CHANNELS 3 Zrotation Xrotation Yrotation
                    JOINT LeftForeArm
                    {
                        OFFSET 24.535166 0.000000 0.000000
                        CHANNELS 3 Zrotation Xrotation Yrotation
                        JOINT LeftHand
                        {
                            OFFSET 20.235195 0.000000 0.000000
                            CHANNELS 3 Zrotation Xrotation Yrotation
                            JOINT LeftHandThumb1
                            {
                                OFFSET 1.906737 -2.166747 3.033446
                                CHANNELS 3 Zrotation Xrotation Yrotation
                                JOINT LeftHandThumb2
                                {
                                    OFFSET 2.043247 0.000000 1.332553
                                    CHANNELS 3 Zrotation Xrotation Yrotation
                                    JOINT LeftHandThumb3
                                    {
                                        OFFSET 2.665105 0.000000 0.000000
                                        CHANNELS 3 Zrotation Xrotation Yrotation
                                        End Site
                                        {
                                            OFFSET 2.367595 0.000000 0.000000
                                        }
                                    }
                                }
                            }
                            JOINT LeftHandIndex1
                            {
                                OFFSET 7.800290 0.000000 3.033446
                                CHANNELS 3 Zrotation Xrotation Yrotation
                                JOINT LeftHandIndex2
                                {
                                    OFFSET 4.441842 0.000000 0.000000
                                    CHANNELS 3 Zrotation Xrotation Yrotation
                                    JOINT LeftHandIndex3
                                    {
                                        OFFSET 2.220921 0.000000 0.000000
                                        CHANNELS 3 Zrotation Xrotation Yrotation
                                        End Site
                                        {
                                            OFFSET 1.972996 0.000000 0.000000
                                        }
                                    }
                                }
                            }
                            JOINT LeftHandMiddle1
                            {
                                OFFSET 7.800290 0.000000 1.005371
                                CHANNELS 3 Zrotation Xrotation Yrotation
                                JOINT LeftHandMiddle2
                                {
                                    OFFSET 4.886026 0.000000 0.000000
                                    CHANNELS 3 Zrotation Xrotation Yrotation
                                    JOINT LeftHandMiddle3
                                    {
                                        OFFSET 2.665105 0.000000 0.000000
                                        CHANNELS 3 Zrotation Xrotation Yrotation
                                        End Site
                                        {
                                            OFFSET 2.367595 0.000000 0.000000
                                        }
                                    }
                                }
                            }
                            JOINT LeftHandRing1
                            {
                                OFFSET 7.366940 0.000000 -1.005371
                                CHANNELS 3 Zrotation Xrotation Yrotation
                                JOINT LeftHandRing2
                                {
                                    OFFSET 4.441842 0.000000 0.000000
                                    CHANNELS 3 Zrotation Xrotation Yrotation
                                    JOINT LeftHandRing3
                                    {
                                        OFFSET 2.220921 0.000000 0.000000
                                        CHANNELS 3 Zrotation Xrotation Yrotation
                                        End Site
                                        {
                                            OFFSET 1.972996 0.000000 0.000000
                                        }
                                    }
                                }
                            }
                            JOINT LeftHandPinky1
                            {
                                OFFSET 6.933591 0.000000 -3.033446
                                CHANNELS 3 Zrotation Xrotation Yrotation
                                JOINT LeftHandPinky2
                                {
                                    OFFSET 3.553473 0.000000 0.000000
                                    CHANNELS 3 Zrotation Xrotation Yrotation
                                    JOINT LeftHandPinky3
                                    {
                                        OFFSET 1.776737 0.000000 0.000000
                                        CHANNELS 3 Zrotation Xrotation Yrotation
                                        End Site
                                        {
                                            OFFSET 1.578397 0.000000 0.000000
                                        }
                                    }
                                }
                            }
                        }
                    }
                }
            }
            JOINT RightShoulder
            {
                OFFSET -3.500468 17.711157 -0.013107
                CHANNELS 3 Zrotation Xrotation Yrotation
                JOINT RightArm
                {
                    OFFSET -12.210003 0.000000 0.000000
                    CHANNELS 3 Zrotation Xrotation Yrotation
                    JOINT RightForeArm
                    {
                        OFFSET -24.535166 0.000000 0.000000
                        CHANNELS 3 Zrotation Xrotation Yrotation
                        JOINT RightHand
                        {
                            OFFSET -20.235195 0.000000 0.000000
                            CHANNELS 3 Zrotation Xrotation Yrotation
                            JOINT RightHandThumb1
                            {
                                OFFSET -1.906737 -2.166747 3.033446
                                CHANNELS 3 Zrotation Xrotation Yrotation
                                JOINT RightHandThumb2
                                {
                                    OFFSET -2.043247 0.000000 1.332553
                                    CHANNELS 3 Zrotation Xrotation Yrotation
                                    JOINT RightHandThumb3
                                    {
                                        OFFSET -2.665105 0.000000 0.000000
                                        CHANNELS 3 Zrotation Xrotation Yrotation
                                        End Site
                                        {
                                            OFFSET -2.367595 0.000000 0.000000
                                        }
                                    }
                                }
                            }
                            JOINT RightHandIndex1
                            {
                                OFFSET -7.800290 0.000000 3.033446
                                CHANNELS 3 Zrotation Xrotation Yrotation
                                JOINT RightHandIndex2
                                {
                                    OFFSET -4.441842 0.000000 0.000000
                                    CHANNELS 3 Zrotation Xrotation Yrotation
                                    JOINT RightHandIndex3
                                    {
                                        OFFSET -2.220921 0.000000 0.000000
                                        CHANNELS 3 Zrotation Xrotation Yrotation
                                        End Site
                                        {
                                            OFFSET -1.972996 0.000000 0.000000
                                        }
                                    }
                                }
                            }
                            JOINT RightHandMiddle1
                            {
                                OFFSET -7.800290 0.000000 1.005371
                                CHANNELS 3 Zrotation Xrotation Yrotation
                                JOINT RightHandMiddle2
                                {
                                    OFFSET -4.886026 0.000000 0.000000
                                    CHANNELS 3 Zrotation Xrotation Yrotation
                                    JOINT RightHandMiddle3
                                    {
                                        OFFSET -2.665105 0.000000 0.000000
                                        CHANNELS 3 Zrotation Xrotation Yrotation
                                        End Site
                                        {
                                            OFFSET -2.367595 0.000000 0.000000
                                        }
                                    }
                                }
                            }
                            JOINT RightHandRing1
                            {
                                OFFSET -7.366940 0.000000 -1.005371
                                CHANNELS 3 Zrotation Xrotation Yrotation
                                JOINT RightHandRing2
                                {
                                    OFFSET -4.441842 0.000000 0.000000
                                    CHANNELS 3 Zrotation Xrotation Yrotation
                                    JOINT RightHandRing3
                                    {
                                        OFFSET -2.220921 0.000000 0.000000
                                        CHANNELS 3 Zrotation Xrotation Yrotation
                                        End Site
                                        {
                                            OFFSET -1.972996 0.000000 0.000000
                                        }
                                    }
                                }
                            }
                            JOINT RightHandPinky1
                            {
                                OFFSET -6.933591 0.000000 -3.033446
                                CHANNELS 3 Zrotation Xrotation Yrotation
                                JOINT RightHandPinky2
                                {
                                    OFFSET -3.553473 0.000000 0.000000
                                    CHANNELS 3 Zrotation Xrotation Yrotation
                                    JOINT RightHandPinky3
                                    {
                                        OFFSET -1.776737 0.000000 0.000000
                                        CHANNELS 3 Zrotation Xrotation Yrotation
                                        End Site
                                        {
                                            OFFSET -1.578397 0.000000 0.000000
                                        }
                                    }
                                }
                            }
                        }
                    }
                }
            }
        }
    }
    JOINT LeftUpLeg
    {
        OFFSET 8.883684 0.000000 0.000000
        CHANNELS 3 Zrotation Xrotation Yrotation
        JOINT LeftLeg
        {
            OFFSET -0.000000 -38.184189 0.000000
            CHANNELS 3 Zrotation Xrotation Yrotation
            JOINT LeftFoot
            {
                OFFSET -0.000000 -35.840691 0.000000
                CHANNELS 3 Zrotation Xrotation Yrotation
                JOINT LeftToeBase
                {
                    OFFSET -0.000000 -5.774395 13.325527
                    CHANNELS 3 Zrotation Xrotation Yrotation
                    End Site
                    {
                        OFFSET -0.000000 0.000000 3.553473
                    }
                }
            }
        }
    }
    JOINT RightUpLeg
    {
        OFFSET -8.883684 0.000000 0.000000
        CHANNELS 3 Zrotation Xrotation Yrotation
        JOINT RightLeg
        {
            OFFSET -0.000000 -38.184189 0.000000
            CHANNELS 3 Zrotation Xrotation Yrotation
            JOINT RightFoot
            {
                OFFSET -0.000000 -35.840691 0.000000
                CHANNELS 3 Zrotation Xrotation Yrotation
                JOINT RightToeBase
                {
                    OFFSET -0.000000 -5.774395 13.325527
                    CHANNELS 3 Zrotation Xrotation Yrotation
                    End Site
                    {
                        OFFSET -0.000000 0.000000 3.553473
                    }
                }
            }
        }
    }
}
MOTION
Frames:    4
Frame Time:    0.008333
4.237444    81.506142    114.789520    4.034917    -1.520057    3.180715    -1.067591    3.185646    0.551558    -5.303333    2.632383    0.296056    2.094680    0.979574    -1.782392    0.281906    1.791583    -1.584848    1.812350    9.165572    -9.008573    -75.733673    37.357643    -10.152695    8.710584    -7.560363    0.148373    -16.172897    -38.659245    -10.927069    3.506343    1.730471    6.636333    -0.000000    0.000000    5.355628    -0.000000    0.000000    10.711256    -4.155656    0.510184    -6.986845    -8.373605    0.000000    0.000000    -4.186801    0.000000    0.000000    -13.267041    -0.777609    -1.062119    -26.542618    0.000000    0.000000    -13.271309    0.000000    0.000000    -22.206791    -2.979570    4.590206    -44.711632    0.000000    0.000000    -22.355816    0.000000    0.000000    -31.178877    -6.127078    10.003251    -63.431213    0.000000    0.000000    -31.715612    0.000000    0.000000    -2.272145    0.362124    2.383187    87.633400    53.799942    -3.816829    -5.559251    -18.352205    5.862660    21.745655    -52.333626    11.763865    0.350228    0.392358    -0.408454    0.000000    0.000000    -0.722680    0.000000    0.000000    -1.445360    8.729875    0.112430    0.732139    17.461189    0.000000    -0.000000    8.730595    0.000000    -0.000000    17.956930    0.115169    0.485540    35.914551    0.000000    -0.000000    17.957273    0.000000    -0.000000    27.183905    0.078332    0.241693    54.367893    0.000000    -0.000000    27.183945    0.000000    -0.000000    36.690220    0.000000    -0.000000    73.380440    0.000000    -0.000000    36.690220    0.000000    -0.000000    -4.566600    -7.972781    -5.248589    -0.597601    17.434662    -2.253273    -0.051804    -7.563007    3.492258    0.151993    0.767814    -0.124586    -1.592970    -6.768062    3.590702    2.283177    17.074322    -3.738843    -4.204270    -8.600392    -7.166743    -0.053464    -0.217629    0.099580    
4.230945    81.503334    114.804352    4.038262    -1.530352    3.183805    -1.066387    3.182541    0.553692    -5.314213    2.640446    0.297421    2.094804    0.990483    -1.783587    0.276431    1.802688    -1.585104    1.809281    9.163194    -9.005565    -75.739723    37.348186    -10.140365    8.720583    -7.543164    0.144197    -16.164385    -38.664791    -10.924588    3.505900    1.727509    6.631465    -0.000000    0.000000    5.348026    -0.000000    0.000000    10.696053    -4.195733    0.516501    -7.005366    -8.454697    0.000000    0.000000    -4.227348    0.000000    0.000000    -13.286801    -0.769770    -1.082263    -26.581560    0.000000    0.000000    -13.290779    0.000000    0.000000    -22.206472    -2.967981    4.569444    -44.708424    0.000000    0.000000    -22.354212    0.000000    0.000000    -31.158146    -6.109672    9.983500    -63.384579    0.000000    0.000000    -31.692289    0.000000    0.000000    -2.264375    0.368238    2.384773    87.629456    53.798569    -3.803985    -5.558956    -18.352261    5.864333    21.737932    -52.340782    11.768572    0.343835    0.392028    -0.412735    0.000000    0.000000    -0.727116    0.000000    0.000000    -1.454233    8.735636    0.117374    0.763819    17.472839    0.000000    -0.000000    8.736420    0.000000    -0.000000    17.961102    0.120198    0.506546    35.922947    0.000000    -0.000000    17.961475    0.000000    -0.000000    27.186476    0.081741    0.252149    54.373058    0.000000    -0.000000    27.186529    0.000000    -0.000000    36.691132    0.000000    -0.000000    73.382263    0.000000    -0.000000    36.691132    0.000000    -0.000000    -4.562204    -7.957179    -5.242042    -0.600884    17.445763    -2.255959    -0.052607    -7.576924    3.486644    0.152003    0.766762    -0.124974    -1.586674    -6.767339    3.581136    2.279024    17.117546    -3.711811    -4.224280    -8.621904    -7.192834    -0.054769    -0.220394    0.101915    
4.224264    81.500557    114.819099    4.041969    -1.540371    3.188447    -1.065684    3.179185    0.555409    -5.324547    2.648673    0.298698    2.094411    1.002134    -1.784723    0.271728    1.812567    -1.585482    1.805736    9.161390    -9.002131    -75.744698    37.339180    -10.129060    8.730981    -7.526486    0.139932    -16.156614    -38.670597    -10.922739    3.506093    1.724127    6.626668    -0.000000    0.000000    5.340440    -0.000000    0.000000    10.680879    -4.234564    0.522648    -7.023315    -8.533275    0.000000    0.000000    -4.266638    0.000000    0.000000    -13.307567    -0.762259    -1.101964    -26.622545    0.000000    0.000000    -13.311273    0.000000    0.000000    -22.209406    -2.957077    4.548887    -44.711811    0.000000    0.000000    -22.355906    0.000000    0.000000    -31.142963    -6.093490    9.963529    -63.349239    0.000000    0.000000    -31.674616    0.000000    0.000000    -2.257640    0.372147    2.386171    87.630028    53.796829    -3.795263    -5.558503    -18.353996    5.865818    21.730064    -52.349232    11.772243    0.337498    0.391597    -0.416793    0.000000    0.000000    -0.731352    0.000000    0.000000    -1.462704    8.739875    0.121404    0.789651    17.481426    0.000000    -0.000000    8.740713    0.000000    -0.000000    17.963980    0.124298    0.523675    35.928761    0.000000    -0.000000    17.964382    0.000000    -0.000000    27.187988    0.084519    0.260674    54.376095    0.000000    -0.000000    27.188046    0.000000    -0.000000    36.691223    0.000000    -0.000000    73.382439    0.000000    -0.000000    36.691223    0.000000    -0.000000    -4.558380    -7.942324    -5.237109    -0.603955    17.457638    -2.260792    -0.053000    -7.591066    3.483098    0.151943    0.765604    -0.125221    -1.580885    -6.765469    3.571168    2.275282    17.157990    -3.689873    -4.242917    -8.642704    -7.214875    -0.056147    -0.222787    0.104360    
4.217216    81.497856    114.833626    4.046096    -1.549156    3.195709    -1.065717    3.174538    0.556578    -5.334066    2.657214    0.299863    2.093632    1.015030    -1.785959    0.267937    1.820956    -1.586107    1.801775    9.160514    -8.997869    -75.748184    37.331020    -10.119651    8.742453    -7.510991    0.135815    -16.150137    -38.676422    -10.921639    3.506727    1.720541    6.622049    -0.000000    0.000000    5.333232    -0.000000    0.000000    10.666464    -4.272056    0.528560    -7.040032    -8.609139    0.000000    0.000000    -4.304570    0.000000    0.000000    -13.330639    -0.755320    -1.120714    -26.668171    0.000000    0.000000    -13.334087    0.000000    0.000000    -22.218250    -2.947393    4.528810    -44.727207    0.000000    0.000000    -22.363598    0.000000    0.000000    -31.137398    -6.079457    9.943265    -63.333477    0.000000    0.000000    -31.666739    0.000000    0.000000    -2.252517    0.372471    2.386939    87.638275    53.794567    -3.793611    -5.557859    -18.358429    5.867008    21.721867    -52.359688    11.774528    0.331747    0.391079    -0.420262    0.000000    0.000000    -0.735021    0.000000    0.000000    -1.470041    8.742781    0.124096    0.806887    17.487312    0.000000    -0.000000    8.743656    0.000000    -0.000000    17.965845    0.127034    0.535103    35.932526    0.000000    -0.000000    17.966263    0.000000    -0.000000    27.188812    0.086373    0.266362    54.377731    0.000000    -0.000000    27.188871    0.000000    -0.000000    36.690948    0.000000    -0.000000    73.381897    0.000000    -0.000000    36.690948    0.000000    -0.000000    -4.555353    -7.929626    -5.234494    -0.606421    17.470917    -2.269508    -0.053507    -7.605962    3.482733    0.151905    0.764829    -0.125389    -1.575883    -6.762552    3.560959    2.272594    17.193945    -3.676214    -4.259599    -8.662299    -7.230841    -0.057556    -0.224719    0.106839    
